<svg width="25" height="25" viewBox="0 0 25 25" fill="none" xmlns="http://www.w3.org/2000/svg">
<path d="M19.7916 4.6875H5.20831C4.37951 4.6875 3.58466 5.01674 2.9986 5.60279C2.41255 6.18884 2.08331 6.9837 2.08331 7.8125V17.1875C2.08331 18.0163 2.41255 18.8112 2.9986 19.3972C3.58466 19.9833 4.37951 20.3125 5.20831 20.3125H19.7916C20.6204 20.3125 21.4153 19.9833 22.0014 19.3972C22.5874 18.8112 22.9166 18.0163 22.9166 17.1875V7.8125C22.9166 6.9837 22.5874 6.18884 22.0014 5.60279C21.4153 5.01674 20.6204 4.6875 19.7916 4.6875ZM20.8333 17.1875C20.8333 17.4638 20.7236 17.7287 20.5282 17.9241C20.3329 18.1194 20.0679 18.2292 19.7916 18.2292H5.20831C4.93205 18.2292 4.66709 18.1194 4.47174 17.9241C4.27639 17.7287 4.16665 17.4638 4.16665 17.1875V7.8125C4.16665 7.53623 4.27639 7.27128 4.47174 7.07593C4.66709 6.88058 4.93205 6.77083 5.20831 6.77083H19.7916C20.0679 6.77083 20.3329 6.88058 20.5282 7.07593C20.7236 7.27128 20.8333 7.53623 20.8333 7.8125V17.1875ZM16.6666 10.9375C16.1128 10.9414 15.57 11.0924 15.0937 11.375C14.6193 11.0935 14.0787 10.9426 13.527 10.9376C12.9753 10.9327 12.4322 11.0739 11.9527 11.3469C11.4733 11.6199 11.0747 12.015 10.7974 12.4919C10.5201 12.9689 10.3741 13.5108 10.3741 14.0625C10.3741 14.6142 10.5201 15.1561 10.7974 15.6331C11.0747 16.11 11.4733 16.5051 11.9527 16.7781C12.4322 17.0511 12.9753 17.1923 13.527 17.1874C14.0787 17.1824 14.6193 17.0315 15.0937 16.75C15.5081 16.9958 15.9737 17.1426 16.4542 17.1786C16.9346 17.2147 17.4169 17.1392 17.8634 16.9581C18.3099 16.7769 18.7084 16.4949 19.0278 16.1342C19.3472 15.7735 19.5789 15.3438 19.7048 14.8787C19.8306 14.4136 19.8472 13.9257 19.7533 13.4532C19.6594 12.9806 19.4574 12.5361 19.1633 12.1545C18.8691 11.7729 18.4907 11.4645 18.0576 11.2534C17.6245 11.0423 17.1485 10.9342 16.6666 10.9375ZM13.7187 15.1042C13.6598 15.1092 13.6006 15.1092 13.5416 15.1042C13.2654 15.1042 13.0004 14.9944 12.8051 14.7991C12.6097 14.6037 12.5 14.3388 12.5 14.0625C12.5 13.7862 12.6097 13.5213 12.8051 13.3259C13.0004 13.1306 13.2654 13.0208 13.5416 13.0208C13.6006 13.0158 13.6598 13.0158 13.7187 13.0208C13.483 13.6667 13.483 14.375 13.7187 15.0208V15.1042ZM16.6666 15.1042C16.4606 15.1042 16.2592 15.0431 16.0879 14.9286C15.9166 14.8142 15.7831 14.6515 15.7043 14.4611C15.6254 14.2708 15.6048 14.0613 15.645 13.8593C15.6852 13.6572 15.7844 13.4716 15.9301 13.3259C16.0758 13.1803 16.2614 13.081 16.4634 13.0408C16.6655 13.0007 16.8749 13.0213 17.0653 13.1001C17.2556 13.179 17.4183 13.3125 17.5328 13.4838C17.6472 13.6551 17.7083 13.8565 17.7083 14.0625C17.7083 14.3388 17.5986 14.6037 17.4032 14.7991C17.2079 14.9944 16.9429 15.1042 16.6666 15.1042Z" fill="#A0A1A6"/>
</svg>
