<svg width="20" height="18" viewBox="0 0 20 18" fill="none" xmlns="http://www.w3.org/2000/svg">
<path d="M18.772 6.156L17.404 2.051C17.2056 1.45348 16.8238 0.9337 16.3131 0.565508C15.8024 0.197316 15.1886 -0.000558206 14.559 1.18278e-06H5.441C4.81139 -0.000558206 4.19761 0.197316 3.68688 0.565508C3.17615 0.9337 2.79445 1.45348 2.596 2.051L1.228 6.156C0.864613 6.30848 0.554277 6.56476 0.335845 6.89277C0.117412 7.22077 0.000589089 7.60592 0 8V13C0 13.753 0.423 14.402 1.039 14.743C1.026 14.809 1 14.869 1 14.938V17C1 17.2652 1.10536 17.5196 1.29289 17.7071C1.48043 17.8946 1.73478 18 2 18H3C3.26522 18 3.51957 17.8946 3.70711 17.7071C3.89464 17.5196 4 17.2652 4 17V15H16V17C16 17.2652 16.1054 17.5196 16.2929 17.7071C16.4804 17.8946 16.7348 18 17 18H18C18.2652 18 18.5196 17.8946 18.7071 17.7071C18.8946 17.5196 19 17.2652 19 17V14.938C19 14.869 18.974 14.808 18.961 14.743C19.2744 14.5721 19.5362 14.3202 19.7189 14.0136C19.9017 13.707 19.9988 13.357 20 13V8C20 7.171 19.492 6.459 18.772 6.156ZM2 13V8H18L18.002 13H2ZM5.441 2H14.558C14.989 2 15.371 2.274 15.507 2.684L16.613 6H3.387L4.492 2.684C4.55835 2.4848 4.68572 2.31153 4.85605 2.18876C5.02638 2.06599 5.23104 1.99995 5.441 2Z" fill="#A0A2A6"/>
</svg>
