<svg width="60" height="37" viewBox="0 0 60 37" fill="none" xmlns="http://www.w3.org/2000/svg">
<path d="M30 0C27.6794 0 25.4538 0.974551 23.8128 2.70926C22.1719 4.44397 21.25 6.79675 21.25 9.25C21.25 11.7033 22.1719 14.056 23.8128 15.7907C25.4538 17.5254 27.6794 18.5 30 18.5C32.3206 18.5 34.5462 17.5254 36.1872 15.7907C37.8281 14.056 38.75 11.7033 38.75 9.25C38.75 6.79675 37.8281 4.44397 36.1872 2.70926C34.5462 0.974551 32.3206 0 30 0ZM30 5.28571C30.9946 5.28571 31.9484 5.70338 32.6516 6.44683C33.3549 7.19027 33.75 8.19861 33.75 9.25C33.75 10.3014 33.3549 11.3097 32.6516 12.0532C31.9484 12.7966 30.9946 13.2143 30 13.2143C29.0054 13.2143 28.0516 12.7966 27.3483 12.0532C26.6451 11.3097 26.25 10.3014 26.25 9.25C26.25 8.19861 26.6451 7.19027 27.3483 6.44683C28.0516 5.70338 29.0054 5.28571 30 5.28571ZM13.75 7.92857C12.0924 7.92857 10.5027 8.62468 9.33058 9.86376C8.15848 11.1028 7.5 12.7834 7.5 14.5357C7.5 17.02 8.825 19.1607 10.725 20.2971C11.625 20.8257 12.65 21.1429 13.75 21.1429C14.85 21.1429 15.875 20.8257 16.775 20.2971C17.7 19.7421 18.475 18.9493 19.05 17.9979C17.2287 15.4887 16.2442 12.4128 16.25 9.25V8.51C15.5 8.14 14.65 7.92857 13.75 7.92857ZM46.25 7.92857C45.35 7.92857 44.5 8.14 43.75 8.51V9.25C43.75 12.4214 42.775 15.4871 40.95 17.9979C41.25 18.5 41.575 18.8964 41.95 19.2929C43.1029 20.4745 44.6442 21.1376 46.25 21.1429C47.35 21.1429 48.375 20.8257 49.275 20.2971C51.175 19.1607 52.5 17.02 52.5 14.5357C52.5 12.7834 51.8415 11.1028 50.6694 9.86376C49.4973 8.62468 47.9076 7.92857 46.25 7.92857ZM30 23.7857C24.15 23.7857 12.5 26.8779 12.5 33.0357V37H47.5V33.0357C47.5 26.8779 35.85 23.7857 30 23.7857ZM11.775 25.2393C6.95 25.8471 0 28.4371 0 33.0357V37H7.5V31.8993C7.5 29.23 9.225 27.01 11.775 25.2393ZM48.225 25.2393C50.775 27.01 52.5 29.23 52.5 31.8993V37H60V33.0357C60 28.4371 53.05 25.8471 48.225 25.2393ZM30 29.0714C33.825 29.0714 38.1 30.3929 40.575 31.7143H19.425C21.9 30.3929 26.175 29.0714 30 29.0714Z" fill="#B8B8B8"/>
</svg>
