<?xml version="1.0" standalone="no"?>
<!DOCTYPE svg PUBLIC "-//W3C//DTD SVG 20010904//EN"
 "http://www.w3.org/TR/2001/REC-SVG-20010904/DTD/svg10.dtd">
<svg version="1.0" xmlns="http://www.w3.org/2000/svg"
 width="512.000000pt" height="512.000000pt" viewBox="0 0 512.000000 512.000000"
 preserveAspectRatio="xMidYMid meet">

<g transform="translate(0.000000,512.000000) scale(0.100000,-0.100000)"
fill="#000000" stroke="none">
<path d="M164 5110 c-35 -14 -72 -67 -79 -113 -3 -23 -5 -701 -3 -1507 3
-1393 4 -1467 21 -1493 10 -16 31 -36 46 -45 38 -23 516 -136 545 -128 36 9
77 46 93 83 11 27 11 41 2 73 -21 68 -40 79 -251 130 l-193 47 -3 1336 c-1
735 1 1337 5 1337 5 -1 474 -112 1043 -248 l1035 -248 5 -345 c5 -317 7 -346
24 -372 51 -75 161 -75 212 0 17 26 19 55 24 372 l5 345 1035 248 c569 136
1038 247 1043 248 4 0 6 -602 5 -1337 l-3 -1337 -200 -48 c-228 -54 -248 -61
-275 -95 -61 -78 -4 -203 91 -203 45 0 556 126 583 143 14 10 34 29 43 44 17
26 18 113 21 1506 1 963 -1 1492 -8 1516 -12 47 -57 90 -101 97 -24 4 -383
-78 -1201 -274 l-1168 -279 -1167 278 c-641 154 -1176 279 -1187 278 -12 0
-30 -4 -42 -9z"/>
<path d="M3374 3676 c-46 -20 -74 -62 -74 -110 0 -63 27 -95 121 -148 228
-127 417 -290 575 -498 51 -68 83 -118 152 -236 56 -96 113 -125 182 -89 85
44 92 116 23 238 -196 348 -479 629 -814 810 -91 50 -115 54 -165 33z"/>
<path d="M2455 3344 c-16 -2 -70 -9 -120 -15 -111 -14 -292 -67 -403 -119
-372 -174 -647 -477 -791 -870 -93 -256 -107 -591 -36 -870 125 -491 506 -896
990 -1054 409 -134 868 -82 1238 140 334 201 587 539 682 914 71 279 57 614
-36 870 -141 384 -402 677 -769 860 -91 46 -285 107 -393 125 -94 15 -308 27
-362 19z m316 -269 c442 -73 819 -391 968 -817 31 -89 61 -218 61 -263 l0 -25
-408 0 -408 0 -27 59 c-41 89 -114 164 -205 208 -75 37 -78 38 -192 38 -114 0
-117 -1 -192 -38 -91 -44 -164 -119 -205 -208 l-27 -59 -408 0 -408 0 0 25 c0
45 30 174 61 263 107 307 330 558 625 705 235 118 496 156 765 112z m-104
-1082 c54 -43 76 -85 76 -147 0 -58 -18 -98 -60 -138 -116 -110 -306 -25 -306
137 0 111 84 189 195 182 46 -3 65 -9 95 -34z m-507 -330 c32 -77 135 -180
212 -214 l58 -24 0 -413 0 -412 -42 6 c-69 10 -224 52 -296 80 -242 97 -461
283 -600 512 -83 137 -153 327 -168 461 l-7 61 410 0 409 0 24 -57z m1636 -4
c-15 -134 -85 -324 -168 -461 -139 -229 -358 -415 -600 -512 -72 -28 -227 -70
-295 -80 l-43 -6 0 412 0 413 58 24 c77 34 180 137 212 214 l24 57 409 0 410
0 -7 -61z"/>
<path d="M794 1096 c-47 -21 -74 -61 -74 -113 0 -34 11 -63 47 -126 167 -297
388 -535 668 -724 96 -64 229 -133 259 -133 65 0 126 59 126 122 0 62 -23 93
-98 134 -316 175 -566 422 -740 733 -39 70 -54 87 -87 102 -47 22 -60 23 -101
5z"/>
</g>
</svg>
