<?xml version="1.0" standalone="no"?>
<!DOCTYPE svg PUBLIC "-//W3C//DTD SVG 20010904//EN"
 "http://www.w3.org/TR/2001/REC-SVG-20010904/DTD/svg10.dtd">
<svg version="1.0" xmlns="http://www.w3.org/2000/svg"
 width="512.000000pt" height="512.000000pt" viewBox="0 0 512.000000 512.000000"
 preserveAspectRatio="xMidYMid meet">

<g transform="translate(0.000000,512.000000) scale(0.100000,-0.100000)"
fill="#000000" stroke="none">
<path d="M953 5110 c-86 -18 -167 -81 -211 -164 -26 -49 -27 -57 -30 -243 l-4
-193 1079 0 c593 0 1183 -3 1311 -7 l234 -6 -4 199 c-3 193 -4 200 -30 249
-34 64 -90 118 -153 147 l-50 23 -1050 2 c-577 0 -1069 -3 -1092 -7z"/>
<path d="M4045 3626 c-16 -7 -38 -23 -48 -34 -44 -49 -46 -75 -46 -527 0 -236
4 -448 9 -469 5 -23 23 -54 44 -75 l36 -36 110 -3 110 -4 0 -927 0 -928 -23
-34 c-29 -45 -106 -83 -150 -75 -43 8 -92 39 -114 73 -17 25 -18 73 -23 703
l-5 675 -27 80 c-70 206 -248 366 -455 410 -37 8 -83 15 -101 15 l-33 0 3
-152 3 -153 45 -6 c103 -15 185 -76 232 -174 l28 -60 0 -625 c0 -355 5 -655
10 -695 32 -225 227 -395 455 -395 225 0 420 167 455 390 6 42 10 597 10 1553
l0 1487 -247 0 c-183 -1 -256 -4 -278 -14z"/>
<path d="M1330 2320 l0 -150 338 0 c185 0 496 -3 690 -7 l352 -6 0 156 0 157
-690 0 -690 0 0 -150z"/>
<path d="M710 1082 l0 -769 -42 -12 c-53 -16 -93 -56 -109 -109 -16 -55 8
-121 59 -160 l35 -27 1351 -3 1351 -2 45 22 c54 28 82 72 82 132 0 77 -47 135
-124 151 l-28 7 0 769 0 769 -1310 0 -1310 0 0 -768z"/>
</g>
</svg>
