<svg width="20" height="19" viewBox="0 0 20 19" fill="none" xmlns="http://www.w3.org/2000/svg">
<path d="M10 0C8.63636 0 7.57102 0.499504 6.80398 1.49851C6.03693 2.49752 5.65341 3.77455 5.65341 5.32961C5.64394 7.26166 6.26894 8.79315 7.52841 9.92411C7.68939 10.0749 7.74621 10.2681 7.69886 10.5037L7.37216 11.1823C7.26799 11.4085 7.11411 11.5852 6.91051 11.7124C6.70691 11.8397 6.27841 12.0211 5.625 12.2567C5.59659 12.2661 4.99763 12.4593 3.82812 12.8363C2.65862 13.2133 2.03598 13.4206 1.96023 13.4583C1.16477 13.7882 0.643939 14.1322 0.397727 14.4903C0.132576 15.0841 0 16.5873 0 19H20C20 16.5873 19.8674 15.0841 19.6023 14.4903C19.3561 14.1322 18.8352 13.7882 18.0398 13.4583C17.964 13.4206 17.3414 13.2133 16.1719 12.8363C15.0024 12.4593 14.4034 12.2661 14.375 12.2567C13.7216 12.0211 13.2931 11.8397 13.0895 11.7124C12.8859 11.5852 12.732 11.4085 12.6278 11.1823L12.3011 10.5037C12.2538 10.2681 12.3106 10.0749 12.4716 9.92411C13.7311 8.79315 14.3561 7.26166 14.3466 5.32961C14.3466 3.77455 13.9631 2.49752 13.196 1.49851C12.429 0.499504 11.3636 0 10 0Z" fill="#A0A1A6"/>
</svg>
