<svg width="37" height="37" viewBox="0 0 37 37" fill="none" xmlns="http://www.w3.org/2000/svg">
<path d="M18.5 0C20.9533 0 23.306 0.97455 25.0407 2.70926C26.7754 4.44397 27.75 6.79675 27.75 9.25C27.75 11.7033 26.7754 14.056 25.0407 15.7907C23.306 17.5254 20.9533 18.5 18.5 18.5C16.0467 18.5 13.694 17.5254 11.9593 15.7907C10.2246 14.056 9.25 11.7033 9.25 9.25C9.25 6.79675 10.2246 4.44397 11.9593 2.70926C13.694 0.97455 16.0467 0 18.5 0ZM18.5 4.39375C17.212 4.39375 15.9768 4.90539 15.0661 5.81611C14.1554 6.72684 13.6437 7.96204 13.6437 9.25C13.6437 10.538 14.1554 11.7732 15.0661 12.6839C15.9768 13.5946 17.212 14.1063 18.5 14.1063C19.788 14.1063 21.0232 13.5946 21.9339 12.6839C22.8446 11.7732 23.3563 10.538 23.3563 9.25C23.3563 7.96204 22.8446 6.72684 21.9339 5.81611C21.0232 4.90539 19.788 4.39375 18.5 4.39375ZM18.5 20.8125C24.6744 20.8125 37 23.8881 37 30.0625V37H0V30.0625C0 23.8881 12.3256 20.8125 18.5 20.8125ZM18.5 25.2062C11.5625 25.2062 4.39375 28.5825 4.39375 30.0625V32.6063H32.6063V30.0625C32.6063 28.5825 25.3681 25.2062 18.5 25.2062Z" fill="#B8B8B8"/>
</svg>
